<svg xmlns="http://www.w3.org/2000/svg" xmlns:xlink="http://www.w3.org/1999/xlink" width="500" zoomAndPan="magnify" viewBox="0 0 375 374.999991" height="500" preserveAspectRatio="xMidYMid meet" version="1.0"><defs><g/><clipPath id="a0c0672313"><path d="M 59.414062 56.761719 L 320.894531 56.761719 L 320.894531 318.238281 L 59.414062 318.238281 Z M 59.414062 56.761719 " clip-rule="nonzero"/></clipPath><clipPath id="1eae88b164"><path d="M 190.15625 56.761719 C 117.949219 56.761719 59.414062 115.292969 59.414062 187.5 C 59.414062 259.707031 117.949219 318.238281 190.15625 318.238281 C 262.363281 318.238281 320.894531 259.707031 320.894531 187.5 C 320.894531 115.292969 262.363281 56.761719 190.15625 56.761719 Z M 190.15625 56.761719 " clip-rule="nonzero"/></clipPath><clipPath id="2e4b49b5e4"><path d="M 69.859375 75.738281 L 305.359375 75.738281 L 305.359375 299.238281 L 69.859375 299.238281 Z M 69.859375 75.738281 " clip-rule="nonzero"/></clipPath></defs><g clip-path="url(#a0c0672313)"><g clip-path="url(#1eae88b164)"><path fill="#000000" d="M 59.414062 56.761719 L 320.894531 56.761719 L 320.894531 318.238281 L 59.414062 318.238281 Z M 59.414062 56.761719 " fill-opacity="1" fill-rule="nonzero"/></g></g><g clip-path="url(#2e4b49b5e4)"><path fill="#d6a553" d="M 125.921875 89.621094 C 127.558594 89.621094 128.902344 90.957031 128.902344 92.605469 C 128.902344 94.253906 127.558594 95.589844 125.921875 95.589844 C 124.269531 95.589844 122.921875 94.253906 122.921875 92.605469 C 122.921875 90.957031 124.269531 89.621094 125.921875 89.621094 Z M 72.863281 201.875 C 74.515625 201.875 75.863281 203.210938 75.863281 204.859375 C 75.863281 206.507812 74.515625 207.84375 72.863281 207.84375 C 71.210938 207.84375 69.882812 206.507812 69.882812 204.859375 C 69.882812 203.210938 71.210938 201.875 72.863281 201.875 Z M 274.101562 117.121094 C 275.757812 117.121094 277.082031 118.457031 277.082031 120.105469 C 277.082031 121.753906 275.757812 123.089844 274.101562 123.089844 C 272.449219 123.089844 271.101562 121.753906 271.101562 120.105469 C 271.101562 118.457031 272.449219 117.121094 274.101562 117.121094 Z M 223.773438 80.007812 C 225.425781 80.007812 226.773438 81.34375 226.773438 82.992188 C 226.773438 84.640625 225.425781 85.980469 223.773438 85.980469 C 222.140625 85.980469 220.792969 84.640625 220.792969 82.992188 C 220.792969 81.34375 222.140625 80.007812 223.773438 80.007812 Z M 303.296875 196.972656 C 304.355469 196.972656 305.21875 197.789062 305.21875 198.792969 C 305.21875 199.800781 304.355469 200.617188 303.296875 200.617188 C 302.238281 200.617188 301.390625 199.800781 301.390625 198.792969 C 301.390625 197.789062 302.238281 196.972656 303.296875 196.972656 Z M 280.21875 125.84375 C 281.277344 125.84375 282.121094 126.660156 282.121094 127.667969 C 282.121094 128.675781 281.277344 129.492188 280.21875 129.492188 C 279.160156 129.492188 278.296875 128.675781 278.296875 127.667969 C 278.296875 126.660156 279.160156 125.84375 280.21875 125.84375 Z M 134.578125 87.511719 C 135.636719 87.511719 136.5 88.328125 136.5 89.332031 C 136.5 90.339844 135.636719 91.160156 134.578125 91.160156 C 133.519531 91.160156 132.671875 90.339844 132.671875 89.332031 C 132.671875 88.328125 133.519531 87.511719 134.578125 87.511719 Z M 117.269531 90.324219 C 118.328125 90.324219 119.191406 91.140625 119.191406 92.148438 C 119.191406 93.15625 118.328125 93.972656 117.269531 93.972656 C 116.210938 93.972656 115.363281 93.15625 115.363281 92.148438 C 115.363281 91.140625 116.210938 90.324219 117.269531 90.324219 Z M 75.902344 172.875 C 76.960938 172.875 77.824219 173.691406 77.824219 174.699219 C 77.824219 175.703125 76.960938 176.523438 75.902344 176.523438 C 74.84375 176.523438 74 175.703125 74 174.699219 C 74 173.691406 74.84375 172.875 75.902344 172.875 Z M 95.480469 255.679688 C 96.539062 255.679688 97.402344 256.496094 97.402344 257.503906 C 97.402344 258.511719 96.539062 259.328125 95.480469 259.328125 C 94.421875 259.328125 93.574219 258.511719 93.574219 257.503906 C 93.574219 256.496094 94.421875 255.679688 95.480469 255.679688 Z M 156.597656 295.480469 C 157.65625 295.480469 158.519531 296.300781 158.519531 297.304688 C 158.519531 298.308594 157.65625 299.128906 156.597656 299.128906 C 155.539062 299.128906 154.695312 298.308594 154.695312 297.304688 C 154.695312 296.300781 155.539062 295.480469 156.597656 295.480469 Z M 237.390625 290.621094 C 238.449219 290.621094 239.292969 291.441406 239.292969 292.445312 C 239.292969 293.453125 238.449219 294.269531 237.390625 294.269531 C 236.332031 294.269531 235.464844 293.453125 235.464844 292.445312 C 235.464844 291.441406 236.332031 290.621094 237.390625 290.621094 Z M 279.410156 258.636719 C 280.46875 258.636719 281.332031 259.453125 281.332031 260.457031 C 281.332031 261.464844 280.46875 262.28125 279.410156 262.28125 C 278.351562 262.28125 277.507812 261.464844 277.507812 260.457031 C 277.507812 259.453125 278.351562 258.636719 279.410156 258.636719 Z M 274.851562 263.941406 C 275.910156 263.941406 276.777344 264.757812 276.777344 265.765625 C 276.777344 266.769531 275.910156 267.585938 274.851562 267.585938 C 273.8125 267.585938 272.949219 266.769531 272.949219 265.765625 C 272.949219 264.757812 273.8125 263.941406 274.851562 263.941406 Z M 270.042969 269.179688 C 271.101562 269.179688 271.949219 269.996094 271.949219 271.003906 C 271.949219 272.011719 271.101562 272.828125 270.042969 272.828125 C 268.988281 272.828125 268.121094 272.011719 268.121094 271.003906 C 268.121094 269.996094 268.988281 269.179688 270.042969 269.179688 Z M 275.851562 269.914062 C 276.910156 269.914062 277.777344 270.730469 277.777344 271.738281 C 277.777344 272.746094 276.910156 273.5625 275.851562 273.5625 C 274.796875 273.5625 273.949219 272.746094 273.949219 271.738281 C 273.949219 270.730469 274.796875 269.914062 275.851562 269.914062 Z M 243.601562 288.289062 C 244.660156 288.289062 245.503906 289.105469 245.503906 290.113281 C 245.503906 291.121094 244.660156 291.9375 243.601562 291.9375 C 242.542969 291.9375 241.699219 291.121094 241.699219 290.113281 C 241.699219 289.105469 242.542969 288.289062 243.601562 288.289062 Z M 247.429688 285 C 248.003906 285 248.449219 285.417969 248.449219 285.929688 C 248.449219 286.441406 248.003906 286.855469 247.429688 286.855469 C 246.871094 286.855469 246.429688 286.441406 246.429688 285.929688 C 246.429688 285.417969 246.871094 285 247.429688 285 Z M 247.984375 288.890625 C 248.542969 288.890625 248.984375 289.308594 248.984375 289.820312 C 248.984375 290.332031 248.542969 290.75 247.984375 290.75 C 247.410156 290.75 246.96875 290.332031 246.96875 289.820312 C 246.96875 289.308594 247.410156 288.890625 247.984375 288.890625 Z M 266.082031 272.117188 C 266.640625 272.117188 267.082031 272.53125 267.082031 273.042969 C 267.082031 273.558594 266.640625 273.972656 266.082031 273.972656 C 265.507812 273.972656 265.0625 273.558594 265.0625 273.042969 C 265.0625 272.53125 265.507812 272.117188 266.082031 272.117188 Z M 170.269531 79.132812 C 170.828125 79.132812 171.289062 79.550781 171.289062 80.0625 C 171.289062 80.574219 170.828125 80.988281 170.269531 80.988281 C 169.714844 80.988281 169.253906 80.574219 169.253906 80.0625 C 169.253906 79.550781 169.714844 79.132812 170.269531 79.132812 Z M 91.039062 130.625 C 91.59375 130.625 92.039062 131.042969 92.039062 131.554688 C 92.039062 132.066406 91.59375 132.484375 91.039062 132.484375 C 90.460938 132.484375 90.019531 132.066406 90.019531 131.554688 C 90.019531 131.042969 90.460938 130.625 91.039062 130.625 Z M 159.867188 81.457031 C 160.425781 81.457031 160.886719 81.871094 160.886719 82.382812 C 160.886719 82.894531 160.425781 83.3125 159.867188 83.3125 C 159.289062 83.3125 158.847656 82.894531 158.847656 82.382812 C 158.847656 81.871094 159.289062 81.457031 159.867188 81.457031 Z M 172.078125 75.769531 C 172.636719 75.769531 173.097656 76.183594 173.097656 76.695312 C 173.097656 77.207031 172.636719 77.621094 172.078125 77.621094 C 171.519531 77.621094 171.058594 77.207031 171.058594 76.695312 C 171.058594 76.183594 171.519531 75.769531 172.078125 75.769531 Z M 73.515625 196.222656 C 74.074219 196.222656 74.535156 196.636719 74.535156 197.152344 C 74.535156 197.664062 74.074219 198.078125 73.515625 198.078125 C 72.960938 198.078125 72.496094 197.664062 72.496094 197.152344 C 72.496094 196.636719 72.960938 196.222656 73.515625 196.222656 Z M 93.421875 250.550781 C 93.980469 250.550781 94.441406 250.96875 94.441406 251.480469 C 94.441406 251.992188 93.980469 252.410156 93.421875 252.410156 C 92.84375 252.410156 92.402344 251.992188 92.402344 251.480469 C 92.402344 250.96875 92.84375 250.550781 93.421875 250.550781 Z M 98.980469 262.527344 C 99.558594 262.527344 100 262.941406 100 263.457031 C 100 263.964844 99.558594 264.382812 98.980469 264.382812 C 98.421875 264.382812 97.960938 263.964844 97.960938 263.457031 C 97.960938 262.941406 98.421875 262.527344 98.980469 262.527344 Z M 300.277344 204.546875 C 300.835938 204.546875 301.296875 204.964844 301.296875 205.476562 C 301.296875 205.988281 300.835938 206.402344 300.277344 206.402344 C 299.71875 206.402344 299.257812 205.988281 299.257812 205.476562 C 299.257812 204.964844 299.71875 204.546875 300.277344 204.546875 Z M 296.410156 162.597656 C 296.96875 162.597656 297.410156 163.011719 297.410156 163.523438 C 297.410156 164.035156 296.96875 164.449219 296.410156 164.449219 C 295.835938 164.449219 295.390625 164.035156 295.390625 163.523438 C 295.390625 163.011719 295.835938 162.597656 296.410156 162.597656 Z M 283.390625 132.339844 C 283.949219 132.339844 284.410156 132.753906 284.410156 133.265625 C 284.410156 133.777344 283.949219 134.195312 283.390625 134.195312 C 282.832031 134.195312 282.371094 133.777344 282.371094 133.265625 C 282.371094 132.753906 282.832031 132.339844 283.390625 132.339844 Z M 301.949219 188.472656 C 303.007812 188.472656 303.875 189.289062 303.875 190.292969 C 303.875 191.300781 303.007812 192.121094 301.949219 192.121094 C 300.890625 192.121094 300.046875 191.300781 300.046875 190.292969 C 300.046875 189.289062 300.890625 188.472656 301.949219 188.472656 Z M 176.617188 77.046875 C 177.65625 77.046875 178.523438 77.867188 178.523438 78.871094 C 178.523438 79.878906 177.65625 80.695312 176.617188 80.695312 C 175.558594 80.695312 174.695312 79.878906 174.695312 78.871094 C 174.695312 77.867188 175.558594 77.046875 176.617188 77.046875 Z M 78.824219 190.769531 C 78.824219 190.140625 78.824219 189.507812 78.824219 188.875 C 78.824219 130.386719 126.210938 82.902344 184.597656 82.902344 C 185.367188 82.902344 186.15625 82.910156 186.925781 82.929688 C 187.578125 82.914062 188.214844 82.910156 188.867188 82.910156 C 218.734375 82.910156 245.621094 96.414062 264.199219 117.890625 C 285.046875 136.800781 298.085938 163.640625 298.085938 193.386719 C 298.085938 250.59375 249.910156 297.039062 190.578125 297.039062 C 175.097656 297.039062 160.386719 293.882812 147.078125 288.195312 C 107.191406 273.503906 78.824219 236.082031 78.824219 192.289062 C 78.824219 191.78125 78.824219 191.277344 78.824219 190.769531 Z M 97.210938 143.289062 C 88.613281 158.121094 83.730469 175.207031 83.730469 193.386719 C 83.730469 193.445312 83.730469 193.5 83.730469 193.554688 C 84.324219 242.230469 119.480469 282.738281 166.039062 292.144531 C 120.980469 281.324219 87.34375 239.167969 87.34375 188.875 C 87.34375 172.558594 90.882812 157.097656 97.210938 143.289062 Z M 271.101562 127.90625 C 268.851562 124.59375 266.410156 121.421875 263.8125 118.402344 C 263.410156 118.039062 263.007812 117.679688 262.601562 117.324219 C 265.660156 120.664062 268.507812 124.195312 271.101562 127.90625 Z M 174.636719 294.394531 C 179.214844 294.988281 183.886719 295.296875 188.636719 295.296875 C 246.542969 295.296875 293.546875 249.386719 293.546875 192.835938 C 293.546875 175.023438 288.890625 158.265625 280.679688 143.667969 C 286.140625 155.707031 289.488281 168.988281 290.21875 182.988281 C 290.335938 184.9375 290.371094 186.898438 290.371094 188.875 C 290.371094 189.507812 290.371094 190.140625 290.371094 190.769531 C 290.371094 191.277344 290.371094 191.78125 290.371094 192.289062 C 290.371094 194.222656 290.316406 196.140625 290.21875 198.046875 C 288.449219 229.558594 272.277344 257.296875 248.101562 274.90625 C 231.429688 287.449219 210.964844 294.839844 188.867188 294.839844 C 188.484375 294.839844 188.097656 294.839844 187.714844 294.835938 C 187.386719 294.835938 187.058594 294.839844 186.734375 294.839844 C 186.523438 294.839844 186.308594 294.835938 186.097656 294.835938 C 185.597656 294.84375 185.097656 294.847656 184.597656 294.847656 C 182.617188 294.847656 180.65625 294.792969 178.714844 294.683594 C 177.347656 294.613281 175.984375 294.515625 174.636719 294.394531 Z M 173.214844 84.164062 C 125.480469 89.324219 87.289062 126.546875 80.535156 173.867188 C 85.269531 148.5625 99.59375 126.484375 119.730469 111.300781 C 134.25 97.199219 152.714844 87.480469 173.214844 84.164062 Z M 273.3125 132.359375 C 259.46875 113.917969 239.464844 100.15625 216.292969 93.976562 C 253.0625 104.800781 281.3125 135.300781 288.566406 173.113281 C 286.332031 158.296875 281.027344 144.484375 273.3125 132.359375 Z M 254.273438 268.578125 C 258.179688 265.230469 261.832031 261.601562 265.179688 257.730469 C 267.277344 255.203125 269.257812 252.570312 271.101562 249.84375 C 266.257812 256.738281 260.601562 263.027344 254.273438 268.578125 Z M 289.71875 190.453125 C 288.71875 136.03125 243.640625 91.96875 187.65625 90.417969 C 151.15625 91.363281 119.191406 109.992188 100.671875 137.730469 C 92.59375 152.878906 87.980469 170.320312 87.980469 188.875 C 87.980469 246.222656 131.980469 292.933594 186.617188 294.179688 C 243.199219 293.109375 288.890625 247.183594 289.71875 190.453125 Z M 264.773438 243.527344 C 266.429688 243.527344 267.777344 244.867188 267.777344 246.511719 C 267.777344 248.160156 266.429688 249.496094 264.773438 249.496094 C 263.140625 249.496094 261.792969 248.160156 261.792969 246.511719 C 261.792969 244.867188 263.140625 243.527344 264.773438 243.527344 Z M 223.3125 104.945312 C 223.871094 104.945312 224.332031 105.359375 224.332031 105.871094 C 224.332031 106.382812 223.871094 106.796875 223.3125 106.796875 C 222.753906 106.796875 222.292969 106.382812 222.292969 105.871094 C 222.292969 105.359375 222.753906 104.945312 223.3125 104.945312 Z M 261.621094 252.046875 C 262.179688 252.046875 262.640625 252.460938 262.640625 252.972656 C 262.640625 253.484375 262.179688 253.902344 261.621094 253.902344 C 261.0625 253.902344 260.601562 253.484375 260.601562 252.972656 C 260.601562 252.460938 261.0625 252.046875 261.621094 252.046875 Z M 118.460938 127.589844 C 119.019531 127.589844 119.480469 128.007812 119.480469 128.515625 C 119.480469 129.03125 119.019531 129.445312 118.460938 129.445312 C 117.902344 129.445312 117.441406 129.03125 117.441406 128.515625 C 117.441406 128.007812 117.902344 127.589844 118.460938 127.589844 Z M 96.769531 157.304688 C 98.421875 157.304688 99.769531 158.640625 99.769531 160.289062 C 99.769531 161.933594 98.421875 163.273438 96.769531 163.273438 C 95.132812 163.273438 93.789062 161.933594 93.789062 160.289062 C 93.789062 158.640625 95.132812 157.304688 96.769531 157.304688 Z M 282.101562 165.238281 C 283.160156 165.238281 284.027344 166.054688 284.027344 167.0625 C 284.027344 168.070312 283.160156 168.886719 282.101562 168.886719 C 281.046875 168.886719 280.199219 168.070312 280.199219 167.0625 C 280.199219 166.054688 281.046875 165.238281 282.101562 165.238281 Z M 279.699219 158.585938 C 280.738281 158.585938 281.601562 159.402344 281.601562 160.40625 C 281.601562 161.414062 280.738281 162.234375 279.699219 162.234375 C 278.640625 162.234375 277.777344 161.414062 277.777344 160.40625 C 277.777344 159.402344 278.640625 158.585938 279.699219 158.585938 Z M 112.308594 248.4375 C 113.363281 248.4375 114.230469 249.253906 114.230469 250.261719 C 114.230469 251.269531 113.363281 252.085938 112.308594 252.085938 C 111.25 252.085938 110.402344 251.269531 110.402344 250.261719 C 110.402344 249.253906 111.25 248.4375 112.308594 248.4375 Z M 107.75 242.792969 C 108.808594 242.792969 109.652344 243.609375 109.652344 244.617188 C 109.652344 245.625 108.808594 246.441406 107.75 246.441406 C 106.691406 246.441406 105.84375 245.625 105.84375 244.617188 C 105.84375 243.609375 106.691406 242.792969 107.75 242.792969 Z M 92.152344 196.628906 C 93.210938 196.628906 94.074219 197.449219 94.074219 198.453125 C 94.074219 199.460938 93.210938 200.277344 92.152344 200.277344 C 91.09375 200.277344 90.25 199.460938 90.25 198.453125 C 90.25 197.449219 91.09375 196.628906 92.152344 196.628906 Z M 100.019531 165.8125 C 100.574219 165.8125 101.039062 166.230469 101.039062 166.742188 C 101.039062 167.253906 100.574219 167.667969 100.019531 167.667969 C 99.460938 167.667969 99 167.253906 99 166.742188 C 99 166.230469 99.460938 165.8125 100.019531 165.8125 Z M 221.425781 99.785156 C 222.484375 99.785156 223.332031 100.605469 223.332031 101.613281 C 223.332031 102.617188 222.484375 103.433594 221.425781 103.433594 C 220.371094 103.433594 219.503906 102.617188 219.503906 101.613281 C 219.503906 100.605469 220.371094 99.785156 221.425781 99.785156 Z M 270.46875 238.40625 C 271.527344 238.40625 272.371094 239.222656 272.371094 240.230469 C 272.371094 241.234375 271.527344 242.054688 270.46875 242.054688 C 269.410156 242.054688 268.5625 241.234375 268.5625 240.230469 C 268.5625 239.222656 269.410156 238.40625 270.46875 238.40625 Z M 183.65625 94.027344 C 184.214844 94.027344 184.675781 94.445312 184.675781 94.957031 C 184.675781 95.46875 184.214844 95.882812 183.65625 95.882812 C 183.097656 95.882812 182.636719 95.46875 182.636719 94.957031 C 182.636719 94.445312 183.097656 94.027344 183.65625 94.027344 Z M 158.039062 279.488281 C 159.695312 279.488281 161.039062 280.824219 161.039062 282.472656 C 161.039062 284.121094 159.695312 285.457031 158.039062 285.457031 C 156.386719 285.457031 155.058594 284.121094 155.058594 282.472656 C 155.058594 280.824219 156.386719 279.488281 158.039062 279.488281 Z M 114.078125 129.222656 C 115.117188 129.222656 115.980469 130.039062 115.980469 131.046875 C 115.980469 132.054688 115.117188 132.871094 114.078125 132.871094 C 113.019531 132.871094 112.152344 132.054688 112.152344 131.046875 C 112.152344 130.039062 113.019531 129.222656 114.078125 129.222656 Z M 95.460938 166.992188 C 96.519531 166.992188 97.382812 167.8125 97.382812 168.820312 C 97.382812 169.824219 96.519531 170.640625 95.460938 170.640625 C 94.402344 170.640625 93.554688 169.824219 93.554688 168.820312 C 93.554688 167.8125 94.402344 166.992188 95.460938 166.992188 Z M 285.527344 190.972656 C 286.085938 190.972656 286.546875 191.386719 286.546875 191.898438 C 286.546875 192.410156 286.085938 192.828125 285.527344 192.828125 C 284.96875 192.828125 284.507812 192.410156 284.507812 191.898438 C 284.507812 191.386719 284.96875 190.972656 285.527344 190.972656 Z M 115.480469 123.917969 C 116.539062 123.917969 117.402344 124.734375 117.402344 125.742188 C 117.402344 126.75 116.539062 127.566406 115.480469 127.566406 C 114.421875 127.566406 113.578125 126.75 113.578125 125.742188 C 113.578125 124.734375 114.421875 123.917969 115.480469 123.917969 Z M 165.328125 284.429688 C 166.386719 284.429688 167.234375 285.25 167.234375 286.257812 C 167.234375 287.261719 166.386719 288.078125 165.328125 288.078125 C 164.269531 288.078125 163.40625 287.261719 163.40625 286.257812 C 163.40625 285.25 164.269531 284.429688 165.328125 284.429688 Z M 226.140625 102.152344 C 226.695312 102.152344 227.160156 102.570312 227.160156 103.082031 C 227.160156 103.59375 226.695312 104.011719 226.140625 104.011719 C 225.582031 104.011719 225.121094 103.59375 225.121094 103.082031 C 225.121094 102.570312 225.582031 102.152344 226.140625 102.152344 Z M 160.117188 93.160156 C 145.328125 96.582031 131.769531 103.03125 120.132812 111.796875 C 116.210938 115.613281 112.578125 119.753906 109.269531 124.171875 C 122.597656 109.363281 140.175781 98.390625 160.117188 93.160156 Z M 257.988281 113.480469 C 246.640625 104.578125 233.371094 97.871094 218.871094 94.035156 C 238.429688 99.75 255.621094 110.855469 268.621094 125.585938 C 265.371094 121.28125 261.832031 117.234375 257.988281 113.480469 Z M 260.199219 114.433594 C 245.640625 99.226562 226.660156 88.636719 205.464844 84.964844 C 225.832031 89.054688 244.101562 99.015625 258.429688 113.003906 C 259.023438 113.476562 259.621094 113.949219 260.199219 114.433594 Z M 158.964844 291.804688 C 168.964844 294.785156 179.578125 296.394531 190.578125 296.394531 C 249.542969 296.394531 297.429688 250.242188 297.429688 193.386719 C 297.429688 165.695312 286.0625 140.542969 267.601562 122.023438 C 271.292969 126.746094 274.582031 131.804688 277.46875 137.152344 C 288.046875 153.214844 294.179688 172.332031 294.179688 192.835938 C 294.179688 249.738281 246.890625 295.9375 188.636719 295.9375 C 178.367188 295.9375 168.425781 294.5 159.039062 291.824219 C 159.019531 291.816406 158.984375 291.8125 158.964844 291.804688 Z M 82.421875 216.355469 C 87.554688 236.890625 99.113281 255.003906 114.921875 268.578125 C 99.402344 254.960938 87.902344 236.882812 82.421875 216.355469 Z M 253.5625 109.402344 C 235.5625 93.714844 212.195312 84.054688 186.617188 83.570312 C 162.75 84.117188 140.925781 93.328125 123.902344 108.316406 C 141.078125 96.609375 162.019531 89.738281 184.597656 89.738281 C 185.023438 89.738281 185.425781 89.738281 185.847656 89.746094 C 186.136719 89.742188 186.425781 89.742188 186.734375 89.742188 C 186.964844 89.742188 187.214844 89.742188 187.464844 89.742188 C 187.847656 89.738281 188.234375 89.738281 188.636719 89.738281 C 188.886719 89.738281 189.136719 89.738281 189.367188 89.738281 C 189.773438 89.734375 190.175781 89.734375 190.578125 89.734375 C 214.101562 89.734375 235.851562 97.03125 253.5625 109.402344 Z M 116.152344 114.949219 C 94.152344 133.273438 80.035156 160.269531 79.480469 190.453125 C 80.019531 226.808594 98.980469 258.730469 127.421875 277.25 C 100.558594 258.398438 83.074219 227.84375 83.074219 193.386719 C 83.074219 193.058594 83.074219 192.726562 83.074219 192.398438 C 83.074219 192.214844 83.074219 192.035156 83.074219 191.855469 C 83.191406 168.421875 91.25 146.832031 104.730469 129.597656 C 108.113281 124.363281 111.941406 119.460938 116.152344 114.949219 Z M 116.152344 114.949219 " fill-opacity="1" fill-rule="evenodd"/></g><g fill="#d6a553" fill-opacity="1"><g transform="translate(130.367299, 197.865509)"><g><path d="M 12.171875 -75.046875 C 16.609375 -76.890625 20.867188 -77.8125 24.953125 -77.8125 C 28.359375 -77.8125 31.867188 -76.550781 35.484375 -74.03125 C 37.460938 -72.664062 39.679688 -70.003906 42.140625 -66.046875 C 43.773438 -63.328125 45.851562 -58.390625 48.375 -51.234375 L 60.84375 -15.84375 C 63.707031 -7.9375 66.617188 -1.648438 69.578125 3.015625 C 72.546875 7.679688 75.253906 11.191406 77.703125 13.546875 C 80.160156 15.898438 82.71875 17.550781 85.375 18.5 C 88.039062 19.457031 90.242188 19.9375 91.984375 19.9375 C 93.722656 19.9375 95.273438 19.800781 96.640625 19.53125 L 96.734375 20.546875 C 93.460938 21.640625 90.257812 22.1875 87.125 22.1875 C 83.988281 22.1875 80.851562 21.382812 77.71875 19.78125 C 74.582031 18.175781 71.648438 15.945312 68.921875 13.09375 C 63.054688 7.15625 58.082031 -1.878906 54 -14.015625 L 50 -25.671875 L 21.984375 -25.671875 L 14.9375 -7.46875 C 14.59375 -6.644531 14.421875 -5.820312 14.421875 -5 C 14.421875 -4.1875 14.78125 -3.316406 15.5 -2.390625 C 16.21875 -1.472656 17.328125 -1.015625 18.828125 -1.015625 L 19.640625 -1.015625 L 19.640625 0 L -0.90625 0 L -0.90625 -1.015625 L 0 -1.015625 C 1.644531 -1.015625 3.25 -1.507812 4.8125 -2.5 C 6.382812 -3.488281 7.679688 -4.972656 8.703125 -6.953125 L 34.0625 -67.6875 C 30.375 -72.9375 25.804688 -75.5625 20.359375 -75.5625 C 17.898438 -75.5625 15.273438 -75.050781 12.484375 -74.03125 Z M 23.109375 -28.734375 L 48.984375 -28.734375 L 40.90625 -52.5625 C 39.34375 -57.125 37.910156 -60.703125 36.609375 -63.296875 Z M 23.109375 -28.734375 "/></g></g></g><g fill="#d6a553" fill-opacity="1"><g transform="translate(189.255233, 259.117312)"><g><path d="M 40.5 -44.578125 C 39.269531 -43.285156 37.875 -42.332031 36.3125 -41.71875 C 42.988281 -40.757812 48.0625 -38.390625 51.53125 -34.609375 C 55.007812 -30.828125 56.75 -26.207031 56.75 -20.75 C 56.75 -14.144531 54.09375 -8.796875 48.78125 -4.703125 C 43.46875 -0.609375 36.476562 1.4375 27.8125 1.4375 C 19.15625 1.4375 12.375 -0.691406 7.46875 -4.953125 C 2.5625 -9.210938 0.109375 -15.226562 0.109375 -23 C 0.109375 -23.414062 0.109375 -23.828125 0.109375 -24.234375 L 1.234375 -24.4375 C 2.597656 -14.28125 6.820312 -7.703125 13.90625 -4.703125 L 13.90625 -64.21875 C 13.769531 -66.050781 13.070312 -67.5625 11.8125 -68.75 C 10.550781 -69.945312 9.035156 -70.546875 7.265625 -70.546875 L 6.046875 -70.546875 L 6.046875 -71.578125 L 23.21875 -71.578125 C 29.625 -71.578125 34.753906 -70.109375 38.609375 -67.171875 C 42.460938 -64.242188 44.390625 -60.410156 44.390625 -55.671875 C 44.390625 -50.929688 43.09375 -47.234375 40.5 -44.578125 Z M 20.5625 -68.296875 L 20.5625 -2.859375 C 22.8125 -2.523438 25.398438 -2.359375 28.328125 -2.359375 C 34.867188 -2.359375 39.960938 -4.113281 43.609375 -7.625 C 47.265625 -11.132812 49.09375 -15.679688 49.09375 -21.265625 C 49.09375 -24.265625 48.53125 -26.921875 47.40625 -29.234375 C 46.28125 -31.554688 44.863281 -33.363281 43.15625 -34.65625 C 38.65625 -38.132812 32.316406 -39.875 24.140625 -39.875 C 24.066406 -39.875 24.03125 -39.875 24.03125 -39.875 L 23.9375 -40.796875 C 24 -40.796875 24.03125 -40.796875 24.03125 -40.796875 C 27.507812 -40.796875 30.492188 -41.9375 32.984375 -44.21875 C 35.472656 -46.507812 36.71875 -50.039062 36.71875 -54.8125 C 36.71875 -63.800781 31.773438 -68.296875 21.890625 -68.296875 Z M 20.5625 -68.296875 "/></g></g></g><g fill="#d6a553" fill-opacity="1"><g transform="translate(111.715998, 215.070821)"><g><path d="M 0.734375 0 L 0.734375 -7.109375 L 3.09375 -7.109375 C 4 -7.109375 4.691406 -6.941406 5.171875 -6.609375 C 5.660156 -6.285156 5.90625 -5.804688 5.90625 -5.171875 C 5.90625 -4.828125 5.820312 -4.519531 5.65625 -4.25 C 5.488281 -3.976562 5.25 -3.765625 4.9375 -3.609375 C 5.257812 -3.484375 5.519531 -3.28125 5.71875 -3 C 5.914062 -2.71875 6.015625 -2.394531 6.015625 -2.03125 C 6.015625 -1.414062 5.78125 -0.921875 5.3125 -0.546875 C 4.851562 -0.179688 4.222656 0 3.421875 0 Z M 3.109375 -6.046875 L 2 -6.046875 L 2 -4.109375 L 3.09375 -4.109375 C 3.601562 -4.109375 3.976562 -4.1875 4.21875 -4.34375 C 4.46875 -4.507812 4.59375 -4.765625 4.59375 -5.109375 C 4.59375 -5.429688 4.472656 -5.664062 4.234375 -5.8125 C 4.003906 -5.96875 3.628906 -6.046875 3.109375 -6.046875 Z M 2 -1.0625 L 3.390625 -1.0625 C 3.796875 -1.0625 4.117188 -1.140625 4.359375 -1.296875 C 4.597656 -1.460938 4.71875 -1.71875 4.71875 -2.0625 C 4.71875 -2.707031 4.265625 -3.03125 3.359375 -3.03125 L 2 -3.03125 Z M 2 -1.0625 "/></g></g></g><g fill="#d6a553" fill-opacity="1"><g transform="translate(124.772033, 215.070821)"><g><path d="M 0.734375 0 L 0.734375 -7.109375 L 2.03125 -7.109375 L 2.03125 -4.171875 L 5.40625 -4.171875 L 5.40625 -7.109375 L 6.703125 -7.109375 L 6.703125 0 L 5.40625 0 L 5.40625 -3.03125 L 2.03125 -3.03125 L 2.03125 0 Z M 0.734375 0 "/></g></g></g><g fill="#d6a553" fill-opacity="1"><g transform="translate(138.918917, 215.070821)"><g><path d="M -0.09375 0 L 2.9375 -7.109375 L 4.03125 -7.109375 L 6.953125 0 L 5.625 0 L 4.984375 -1.625 L 1.890625 -1.625 L 1.21875 0 Z M 2.328125 -2.71875 L 4.5625 -2.71875 L 3.46875 -5.515625 Z M 2.328125 -2.71875 "/></g></g></g><g fill="#d6a553" fill-opacity="1"><g transform="translate(152.525378, 215.070821)"><g><path d="M 6.34375 -1.234375 L 6.65625 -0.234375 C 6.519531 -0.128906 6.351562 -0.0507812 6.15625 0 C 5.96875 0.0625 5.765625 0.09375 5.546875 0.09375 C 4.796875 0.09375 4.207031 -0.238281 3.78125 -0.90625 L 2.75 -2.484375 C 2.644531 -2.648438 2.535156 -2.765625 2.421875 -2.828125 C 2.304688 -2.898438 2.179688 -2.9375 2.046875 -2.9375 L 2 -2.9375 L 2 0 L 0.734375 0 L 0.734375 -7.109375 L 2.9375 -7.109375 C 3.84375 -7.109375 4.523438 -6.921875 4.984375 -6.546875 C 5.453125 -6.171875 5.6875 -5.660156 5.6875 -5.015625 C 5.6875 -4.617188 5.597656 -4.273438 5.421875 -3.984375 C 5.253906 -3.703125 5.019531 -3.476562 4.71875 -3.3125 C 4.414062 -3.144531 4.078125 -3.039062 3.703125 -3 C 3.898438 -2.882812 4.082031 -2.703125 4.25 -2.453125 L 4.8125 -1.625 C 4.957031 -1.40625 5.09375 -1.253906 5.21875 -1.171875 C 5.351562 -1.097656 5.519531 -1.0625 5.71875 -1.0625 C 5.945312 -1.0625 6.15625 -1.117188 6.34375 -1.234375 Z M 2.859375 -6.046875 L 2 -6.046875 L 2 -3.953125 L 2.796875 -3.953125 C 3.335938 -3.953125 3.738281 -4.035156 4 -4.203125 C 4.257812 -4.367188 4.390625 -4.640625 4.390625 -5.015625 C 4.390625 -5.703125 3.878906 -6.046875 2.859375 -6.046875 Z M 2.859375 -6.046875 "/></g></g></g><g fill="#d6a553" fill-opacity="1"><g transform="translate(165.521365, 215.070821)"><g><path d="M 5.890625 -7.109375 L 5.734375 -5.96875 L 3.53125 -5.96875 L 3.53125 0 L 2.21875 0 L 2.21875 -5.96875 L -0.0625 -5.96875 L -0.0625 -7.109375 Z M 5.890625 -7.109375 "/></g></g></g><g fill="#d6a553" fill-opacity="1"><g transform="translate(177.986933, 215.070821)"><g><path d="M 0.734375 0 L 0.734375 -7.109375 L 2.03125 -7.109375 L 2.03125 0 Z M 0.734375 0 "/></g></g></g><g fill="#d6a553" fill-opacity="1"><g transform="translate(190.155606, 155.814175)"><g><path d="M -0.09375 0 L 2.9375 -7.109375 L 4.03125 -7.109375 L 6.953125 0 L 5.625 0 L 4.984375 -1.625 L 1.890625 -1.625 L 1.21875 0 Z M 2.328125 -2.71875 L 4.5625 -2.71875 L 3.46875 -5.515625 Z M 2.328125 -2.71875 "/></g></g></g><g fill="#d6a553" fill-opacity="1"><g transform="translate(203.762067, 155.814175)"><g><path d="M 2.9375 0.09375 C 2.101562 0.09375 1.453125 -0.09375 0.984375 -0.46875 C 0.523438 -0.84375 0.257812 -1.390625 0.1875 -2.109375 L 1.40625 -2.296875 C 1.53125 -1.441406 2.0625 -1.015625 3 -1.015625 C 3.40625 -1.015625 3.722656 -1.09375 3.953125 -1.25 C 4.179688 -1.414062 4.296875 -1.644531 4.296875 -1.9375 C 4.296875 -2.207031 4.179688 -2.410156 3.953125 -2.546875 C 3.722656 -2.679688 3.359375 -2.8125 2.859375 -2.9375 C 2.390625 -3.050781 1.988281 -3.1875 1.65625 -3.34375 C 1.320312 -3.5 1.066406 -3.707031 0.890625 -3.96875 C 0.710938 -4.238281 0.625 -4.59375 0.625 -5.03125 C 0.625 -5.457031 0.734375 -5.832031 0.953125 -6.15625 C 1.171875 -6.488281 1.46875 -6.75 1.84375 -6.9375 C 2.226562 -7.125 2.671875 -7.21875 3.171875 -7.21875 C 3.835938 -7.21875 4.378906 -7.039062 4.796875 -6.6875 C 5.210938 -6.34375 5.457031 -5.867188 5.53125 -5.265625 L 4.390625 -5.0625 C 4.253906 -5.757812 3.828125 -6.109375 3.109375 -6.109375 C 2.765625 -6.109375 2.484375 -6.015625 2.265625 -5.828125 C 2.046875 -5.648438 1.9375 -5.414062 1.9375 -5.125 C 1.9375 -4.832031 2.039062 -4.609375 2.25 -4.453125 C 2.46875 -4.296875 2.835938 -4.15625 3.359375 -4.03125 C 3.816406 -3.925781 4.210938 -3.800781 4.546875 -3.65625 C 4.878906 -3.519531 5.132812 -3.320312 5.3125 -3.0625 C 5.5 -2.8125 5.59375 -2.460938 5.59375 -2.015625 C 5.59375 -1.609375 5.476562 -1.242188 5.25 -0.921875 C 5.03125 -0.609375 4.722656 -0.359375 4.328125 -0.171875 C 3.929688 0.00390625 3.46875 0.09375 2.9375 0.09375 Z M 2.9375 0.09375 "/></g></g></g><g fill="#d6a553" fill-opacity="1"><g transform="translate(216.347726, 155.814175)"><g><path d="M 0.734375 0 L 0.734375 -7.109375 L 2.03125 -7.109375 L 2.03125 -4.171875 L 5.40625 -4.171875 L 5.40625 -7.109375 L 6.703125 -7.109375 L 6.703125 0 L 5.40625 0 L 5.40625 -3.03125 L 2.03125 -3.03125 L 2.03125 0 Z M 0.734375 0 "/></g></g></g><g fill="#d6a553" fill-opacity="1"><g transform="translate(230.494611, 155.814175)"><g><path d="M -0.09375 0 L 2.9375 -7.109375 L 4.03125 -7.109375 L 6.953125 0 L 5.625 0 L 4.984375 -1.625 L 1.890625 -1.625 L 1.21875 0 Z M 2.328125 -2.71875 L 4.5625 -2.71875 L 3.46875 -5.515625 Z M 2.328125 -2.71875 "/></g></g></g></svg>