<svg xmlns="http://www.w3.org/2000/svg" xmlns:xlink="http://www.w3.org/1999/xlink" width="32" viewBox="0 0 256 256" height="32" preserveAspectRatio="xMidYMid meet" version="1.0"><defs><g/></defs><g fill="#d6a553" fill-opacity="1"><g transform="translate(130.367299, 197.865509)"><g><path d="M 12.171875 -75.046875 C 16.609375 -76.890625 20.867188 -77.8125 24.953125 -77.8125 C 28.359375 -77.8125 31.867188 -76.550781 35.484375 -74.03125 C 37.460938 -72.664062 39.679688 -70.003906 42.140625 -66.046875 C 43.773438 -63.328125 45.851562 -58.390625 48.375 -51.234375 L 60.84375 -15.84375 C 63.707031 -7.9375 66.617188 -1.648438 69.578125 3.015625 C 72.546875 7.679688 75.253906 11.191406 77.703125 13.546875 C 80.160156 15.898438 82.71875 17.550781 85.375 18.5 C 88.039062 19.457031 90.242188 19.9375 91.984375 19.9375 C 93.722656 19.9375 95.273438 19.800781 96.640625 19.53125 L 96.734375 20.546875 C 93.460938 21.640625 90.257812 22.1875 87.125 22.1875 C 83.988281 22.1875 80.851562 21.382812 77.71875 19.78125 C 74.582031 18.175781 71.648438 15.945312 68.921875 13.09375 C 63.054688 7.15625 58.082031 -1.878906 54 -14.015625 L 50 -25.671875 L 21.984375 -25.671875 L 14.9375 -7.46875 C 14.59375 -6.644531 14.421875 -5.820312 14.421875 -5 C 14.421875 -4.1875 14.78125 -3.316406 15.5 -2.390625 C 16.21875 -1.472656 17.328125 -1.015625 18.828125 -1.015625 L 19.640625 -1.015625 L 19.640625 0 L -0.90625 0 L -0.90625 -1.015625 L 0 -1.015625 C 1.644531 -1.015625 3.25 -1.507812 4.8125 -2.5 C 6.382812 -3.488281 7.679688 -4.972656 8.703125 -6.953125 L 34.0625 -67.6875 C 30.375 -72.9375 25.804688 -75.5625 20.359375 -75.5625 C 17.898438 -75.5625 15.273438 -75.050781 12.484375 -74.03125 Z M 23.109375 -28.734375 L 48.984375 -28.734375 L 40.90625 -52.5625 C 39.34375 -57.125 37.910156 -60.703125 36.609375 -63.296875 Z M 23.109375 -28.734375 "/></g></g></g><g fill="#d6a553" fill-opacity="1"><g transform="translate(189.255233, 259.117312)"><g><path d="M 40.5 -44.578125 C 39.269531 -43.285156 37.875 -42.332031 36.3125 -41.71875 C 42.988281 -40.757812 48.0625 -38.390625 51.53125 -34.609375 C 55.007812 -30.828125 56.75 -26.207031 56.75 -20.75 C 56.75 -14.144531 54.09375 -8.796875 48.78125 -4.703125 C 43.46875 -0.609375 36.476562 1.4375 27.8125 1.4375 C 19.15625 1.4375 12.375 -0.691406 7.46875 -4.953125 C 2.5625 -9.210938 0.109375 -15.226562 0.109375 -23 C 0.109375 -23.414062 0.109375 -23.828125 0.109375 -24.234375 L 1.234375 -24.4375 C 2.597656 -14.28125 6.820312 -7.703125 13.90625 -4.703125 L 13.90625 -64.21875 C 13.769531 -66.050781 13.070312 -67.5625 11.8125 -68.75 C 10.550781 -69.945312 9.035156 -70.546875 7.265625 -70.546875 L 6.046875 -70.546875 L 6.046875 -71.578125 L 23.21875 -71.578125 C 29.625 -71.578125 34.753906 -70.109375 38.609375 -67.171875 C 42.460938 -64.242188 44.390625 -60.410156 44.390625 -55.671875 C 44.390625 -50.929688 43.09375 -47.234375 40.5 -44.578125 Z M 20.5625 -68.296875 L 20.5625 -2.859375 C 22.8125 -2.523438 25.398438 -2.359375 28.328125 -2.359375 C 34.867188 -2.359375 39.960938 -4.113281 43.609375 -7.625 C 47.265625 -11.132812 49.09375 -15.679688 49.09375 -21.265625 C 49.09375 -24.265625 48.53125 -26.921875 47.40625 -29.234375 C 46.28125 -31.554688 44.863281 -33.363281 43.15625 -34.65625 C 38.65625 -38.132812 32.316406 -39.875 24.140625 -39.875 C 24.066406 -39.875 24.03125 -39.875 24.03125 -39.875 L 23.9375 -40.796875 C 24 -40.796875 24.03125 -40.796875 24.03125 -40.796875 C 27.507812 -40.796875 30.492188 -41.9375 32.984375 -44.21875 C 35.472656 -46.507812 36.71875 -50.039062 36.71875 -54.8125 C 36.71875 -63.800781 31.773438 -68.296875 21.890625 -68.296875 Z M 20.5625 -68.296875 "/></g></g></g></svg>